<svg id="Capa_1" enable-background="new 0 0 512 512" height="512" viewBox="0 0 512 512" width="512" xmlns="http://www.w3.org/2000/svg"><g><g><path d="m132.232 466.052h-93.083c-4.17 0-7.551-3.38-7.551-7.551s3.381-7.551 7.551-7.551h88.513l55.825-106.594c1.935-3.695 6.499-5.122 10.193-3.186 3.695 1.934 5.121 6.498 3.186 10.192l-57.945 110.642c-1.303 2.489-3.88 4.048-6.689 4.048z" fill="#756e78"/></g><g><path d="m192.811 393.69c-26.52 0-48.018-21.498-48.018-48.018v-61.279l96.036 61.279c0 26.519-21.498 48.018-48.018 48.018z" fill="#756e78"/></g><g><path d="m219.701 332.19c-3.44 23.143-23.389 40.9-47.489 40.9-7.952 0-15.446-1.945-22.051-5.367 7.99 15.421 24.084 25.967 42.651 25.967 26.52 0 48.018-21.498 48.018-48.018z" fill="#665e66"/></g><g><path d="m48.018 460.542c0 24.615-18.522 44.905-42.389 47.692-2.995.35-5.629-1.991-5.629-5.006v-85.371c0-3.015 2.634-5.356 5.629-5.006 23.867 2.787 42.389 23.076 42.389 47.691z" fill="#756e78"/></g><g><path d="m24.171 419.043c3.557 6.705 5.583 14.347 5.583 22.467 0 20.053-12.293 37.232-29.754 44.419v17.299c0 3.015 2.634 5.355 5.629 5.006 23.867-2.787 42.389-23.076 42.389-47.691 0-17.707-9.584-33.174-23.847-41.5z" fill="#665e66"/></g><g><circle cx="130.45" cy="457.325" fill="#a298a5" r="31.48"/></g><g><path d="m142.306 428.162c1.49 3.66 2.317 7.661 2.317 11.856 0 17.386-14.094 31.48-31.48 31.48-4.196 0-8.196-.828-11.856-2.317 4.684 11.508 15.972 19.624 29.163 19.624 17.386 0 31.48-14.094 31.48-31.48 0-13.191-8.116-24.479-19.624-29.163z" fill="#8b818e"/></g><g><circle cx="192.811" cy="342.111" fill="#f9efda" r="19.172"/></g><g><path d="m199.994 324.344c.899 2.22 1.404 4.641 1.404 7.183 0 10.588-8.584 19.172-19.172 19.172-2.542 0-4.963-.506-7.183-1.404 2.844 7.027 9.721 11.989 17.768 11.989 10.588 0 19.172-8.584 19.172-19.172 0-8.047-4.962-14.924-11.989-17.768z" fill="#f4ddb1"/></g><g><path d="m444.259 308.693 29.951 17.292c19.889 11.483 26.704 36.915 15.221 56.805-11.483 19.889-36.915 26.704-56.805 15.221l-29.951-17.292c-3.348-1.933-4.495-6.214-2.562-9.562l34.584-59.901c1.933-3.349 6.214-4.496 9.562-2.563z" fill="#ddeafb"/></g><path d="m483.484 333.272c.978 8.545-.673 17.466-5.304 25.486-11.483 19.889-36.915 26.704-56.805 15.221l-17.169-9.913-4.093 7.09c-1.933 3.348-.786 7.629 2.562 9.562l29.951 17.292c19.889 11.483 45.322 4.669 56.805-15.221 9.455-16.377 6.494-36.505-5.947-49.517z" fill="#cbe2ff"/><g><path d="m388.876 246.065 79.254 45.757c8.377 4.836 11.247 15.548 6.411 23.925l-49.826 86.3c-4.836 8.377-15.548 11.247-23.925 6.411l-79.254-45.757z" fill="#756e78"/></g><path d="m468.13 291.822-6.075-3.507-52.206 90.423c-1.597 2.766-5.134 3.714-7.901 2.117l-68.171-39.358-12.242 21.204 79.254 45.758c8.377 4.836 19.089 1.966 23.925-6.411l49.826-86.3c4.837-8.378 1.967-19.089-6.41-23.926z" fill="#665e66"/><g><path d="m315.615 398.982-258.572-149.287c-16.74-9.665-22.476-31.071-12.811-47.811l46.667-80.83 319.193 184.286-46.667 80.83c-9.664 16.741-31.07 22.477-47.81 12.812z" fill="#a298a5"/></g><path d="m380.462 288.233-38.078 65.953c-5.131 8.887-16.495 11.932-25.383 6.801l-272.79-157.496c-.218-.126-.426-.262-.64-.391-8.714 16.548-2.866 37.163 13.472 46.595l258.572 149.286c16.74 9.665 38.146 3.929 47.811-12.811l46.667-80.83z" fill="#8b818e"/><g><path d="m381.633 322.399-285.59-164.885c-10.849-6.264-14.567-20.137-8.303-30.987l32.977-57.118c10.962-18.987 35.24-25.492 54.226-14.53l330.856 191.02c9.94 5.739 7.406 20.742-3.869 22.897l-11.621 2.221c-28.602 5.467-55.14 18.721-76.693 38.303l-12.037 10.937c-5.475 4.976-13.539 5.841-19.946 2.142z" fill="#756e78"/></g><g><path d="m505.799 245.899-15.53-8.966c-28.587 5.471-55.11 18.722-76.652 38.295l-12.037 10.937c-5.476 4.975-13.54 5.841-19.947 2.142l-285.59-164.886c-1.685-.973-3.198-2.13-4.529-3.431l-3.774 6.537c-6.264 10.849-2.547 24.723 8.303 30.987l285.59 164.885c6.407 3.699 14.471 2.833 19.947-2.142l12.037-10.937c21.552-19.582 48.091-32.836 76.693-38.303l11.621-2.221c11.274-2.155 13.809-17.158 3.868-22.897z" fill="#665e66"/></g><g><circle cx="333.609" cy="226.858" fill="#bed8fb" r="10.697"/></g><g><circle cx="367.842" cy="245.736" fill="#e4989d" r="10.697"/></g><g><g><circle cx="273.601" cy="61.611" fill="#9dc6fb" r="10.697"/></g><g><path d="m339.918 120.03c-1.587 0-3.188-.499-4.552-1.53-3.325-2.517-3.981-7.253-1.464-10.579 20.519-27.108 20.519-64.973 0-92.081-2.517-3.325-1.862-8.062 1.464-10.579 3.326-2.515 8.062-1.86 10.578 1.464 24.581 32.475 24.581 77.836 0 110.311-1.484 1.961-3.742 2.994-6.026 2.994z" fill="#9dc6fb"/></g><g><path d="m304.857 98.365c-1.831 0-3.668-.663-5.12-2.003-3.065-2.829-3.256-7.606-.427-10.67 12.325-13.352 12.325-34.27 0-47.622-2.828-3.064-2.638-7.841.427-10.67 3.065-2.828 7.842-2.636 10.671.427 17.627 19.096 17.627 49.013 0 68.109-1.488 1.612-3.516 2.429-5.551 2.429z" fill="#9dc6fb"/></g></g></g></svg>